<?xml version="1.0" encoding="iso-8859-1"?>
<!-- Generator: Adobe Illustrator 19.0.0, SVG Export Plug-In . SVG Version: 6.00 Build 0)  -->
<svg version="1.1" id="Capa_1" xmlns="http://www.w3.org/2000/svg" xmlns:xlink="http://www.w3.org/1999/xlink" x="0px" y="0px"
	 viewBox="0 0 512 512" style="enable-background:new 0 0 512 512;" xml:space="preserve">
<g>
	<g>
		<path d="M441,8.072V30l-0.023,0.001C424.49,30.001,411,43.49,411,59.978V120c33.084,0,60-26.916,60-60
			C471,37.841,458.916,18.463,441,8.072z"/>
	</g>
</g>
<g>
	<g>
		<path d="M321,422v-30H101c-33.084,0-60,26.916-60,60c0,33.084,26.916,60,60,60h220v-30c-16.542,0-30-13.458-30-30
			S304.458,422,321,422z"/>
	</g>
</g>
<g>
	<g>
		<path d="M161,0c-33.084,0-60,26.916-60,60v302h220h30v30v30l-0.011,15C342.71,437.007,336,443.719,336,452c0,8.284,6.716,15,15,15
			v15v21.928c17.916-10.391,30-29.769,30-51.928V30c0-16.542,13.458-30,30-30H161z M283,316H169v-30h114V316z M313,256H169v-30h144
			V256z M313,196H169v-30h144V196z M313,136H199v-30h114V136z"/>
	</g>
</g>
<g>
</g>
<g>
</g>
<g>
</g>
<g>
</g>
<g>
</g>
<g>
</g>
<g>
</g>
<g>
</g>
<g>
</g>
<g>
</g>
<g>
</g>
<g>
</g>
<g>
</g>
<g>
</g>
<g>
</g>
</svg>
